<svg width="480" height="413" viewBox="0 0 480 413" fill="none" xmlns="http://www.w3.org/2000/svg">
<path d="M205.119 90.4434C211.811 86.58 219.439 87.2635 222.157 91.9702L235.085 114.363C248.734 109.549 262.382 106.258 275.686 104.457L289.076 75.5857C291.887 69.5258 299.559 65.0965 306.212 65.6926L354.4 70.0109C361.053 70.6071 364.169 76.0033 361.359 82.0634L347.924 111.032C358.504 114.996 368.074 120.382 376.298 127.159L408.348 108.655C415.04 104.791 422.668 105.475 425.385 110.181L445.066 144.27C447.784 148.977 444.562 155.925 437.87 159.788L405.667 178.38C407.359 188.86 407.189 199.801 405.3 210.901L424.54 212.626C411.77 229.659 396.334 246.465 378.568 262.488C399.639 230.659 405.467 196.945 390.72 171.404C366.36 129.21 294.614 124.485 226.762 159.097C223.076 160.852 219.41 162.777 215.78 164.873C212.154 166.966 208.659 169.175 205.301 171.486C141.386 212.941 109.598 277.446 133.961 319.644C148.706 345.184 180.814 356.994 218.911 354.663C196.156 362.036 173.887 366.998 152.755 369.54L160.882 352.017C150.324 348.102 140.764 342.778 132.534 336.074L100.332 354.666C93.6397 358.53 86.0118 357.846 83.2944 353.139L63.6133 319.051C60.8959 314.344 64.1178 307.396 70.8096 303.533L102.86 285.028C101.103 274.518 101.223 263.538 103.08 252.393L71.2756 249.543C64.6224 248.947 61.507 243.55 64.3171 237.49L84.6716 193.599C87.4819 187.539 95.1543 183.109 101.808 183.705L133.505 186.546C141.716 175.924 151.391 165.751 162.385 156.337L149.456 133.944C146.739 129.237 149.961 122.289 156.652 118.426L205.119 90.4434Z" fill="url(#paint0_linear_2709_1883)"/>
<defs>
<linearGradient id="paint0_linear_2709_1883" x1="84.6387" y1="160.003" x2="394.267" y2="255.363" gradientUnits="userSpaceOnUse">
<stop offset="0.125493" stop-color="#B38305"/>
<stop offset="0.880532" stop-color="#784600"/>
</linearGradient>
</defs>
</svg>
